<?xml version="1.0" encoding="UTF-8" standalone="no"?>
<!DOCTYPE svg PUBLIC "-//W3C//DTD SVG 1.1//EN"
 "http://www.w3.org/Graphics/SVG/1.1/DTD/svg11.dtd">
<!-- Generated by graphviz version 2.38.0 (20140413.2041)
 -->
<!-- Title: G Pages: 1 -->
<svg width="373pt" height="598pt"
 viewBox="0.00 0.00 373.00 598.00" xmlns="http://www.w3.org/2000/svg" xmlns:xlink="http://www.w3.org/1999/xlink">
<g id="graph0" class="graph" transform="scale(1 1) rotate(0) translate(4 594)">
<title>G</title>
<polygon fill="white" stroke="none" points="-4,4 -4,-594 369,-594 369,4 -4,4"/>
<g id="clust1" class="cluster"><title>cluster_Global</title>
<path fill="none" stroke="gray" d="M20,-44C20,-44 345,-44 345,-44 351,-44 357,-50 357,-56 357,-56 357,-570 357,-570 357,-576 351,-582 345,-582 345,-582 20,-582 20,-582 14,-582 8,-576 8,-570 8,-570 8,-56 8,-56 8,-50 14,-44 20,-44"/>
<text text-anchor="middle" x="182.5" y="-569.2" font-family="Times New Roman,serif" font-size="11.00" fill="gray">Global</text>
</g>
<g id="clust2" class="cluster"><title>cluster_\IkaGear</title>
<path fill="none" stroke="gray" d="M28,-52C28,-52 337,-52 337,-52 343,-52 349,-58 349,-64 349,-64 349,-542 349,-542 349,-548 343,-554 337,-554 337,-554 28,-554 28,-554 22,-554 16,-548 16,-542 16,-542 16,-64 16,-64 16,-58 22,-52 28,-52"/>
<text text-anchor="middle" x="182.5" y="-541.2" font-family="Times New Roman,serif" font-size="11.00" fill="gray">IkaGear</text>
</g>
<g id="clust3" class="cluster"><title>cluster_\IkaGear\controller</title>
<path fill="none" stroke="gray" d="M36,-346C36,-346 329,-346 329,-346 335,-346 341,-352 341,-358 341,-358 341,-514 341,-514 341,-520 335,-526 329,-526 329,-526 36,-526 36,-526 30,-526 24,-520 24,-514 24,-514 24,-358 24,-358 24,-352 30,-346 36,-346"/>
<text text-anchor="middle" x="182.5" y="-513.2" font-family="Times New Roman,serif" font-size="11.00" fill="gray">controller</text>
</g>
<g id="clust4" class="cluster"><title>cluster_\IkaGear\model</title>
<path fill="none" stroke="gray" d="M53,-266C53,-266 312,-266 312,-266 318,-266 324,-272 324,-278 324,-278 324,-326 324,-326 324,-332 318,-338 312,-338 312,-338 53,-338 53,-338 47,-338 41,-332 41,-326 41,-326 41,-278 41,-278 41,-272 47,-266 53,-266"/>
<text text-anchor="middle" x="182.5" y="-325.2" font-family="Times New Roman,serif" font-size="11.00" fill="gray">model</text>
</g>
<g id="clust5" class="cluster"><title>cluster_\IkaGear\view</title>
<path fill="none" stroke="gray" d="M249.5,-186C249.5,-186 298.5,-186 298.5,-186 304.5,-186 310.5,-192 310.5,-198 310.5,-198 310.5,-246 310.5,-246 310.5,-252 304.5,-258 298.5,-258 298.5,-258 249.5,-258 249.5,-258 243.5,-258 237.5,-252 237.5,-246 237.5,-246 237.5,-198 237.5,-198 237.5,-192 243.5,-186 249.5,-186"/>
<text text-anchor="middle" x="274" y="-245.2" font-family="Times New Roman,serif" font-size="11.00" fill="gray">view</text>
</g>
<g id="clust6" class="cluster"><title>cluster_\IkaGear\system</title>
<path fill="none" stroke="gray" d="M249.5,-106C249.5,-106 298.5,-106 298.5,-106 304.5,-106 310.5,-112 310.5,-118 310.5,-118 310.5,-166 310.5,-166 310.5,-172 304.5,-178 298.5,-178 298.5,-178 249.5,-178 249.5,-178 243.5,-178 237.5,-172 237.5,-166 237.5,-166 237.5,-118 237.5,-118 237.5,-112 243.5,-106 249.5,-106"/>
<text text-anchor="middle" x="274" y="-165.2" font-family="Times New Roman,serif" font-size="11.00" fill="gray">system</text>
</g>
<!-- \\IkaGear\\controller\\AboutController -->
<g id="node1" class="node"><title>\\IkaGear\\controller\\AboutController</title>
<polygon fill="none" stroke="black" points="333,-498 215,-498 215,-462 333,-462 333,-498"/>
<text text-anchor="middle" x="274" y="-477.2" font-family="Courier,monospace" font-size="11.00">AboutController</text>
</g>
<!-- \\IkaGear\\controller\\BaseController -->
<g id="node2" class="node"><title>\\IkaGear\\controller\\BaseController</title>
<polygon fill="none" stroke="black" points="143,-444 32,-444 32,-408 143,-408 143,-444"/>
<text text-anchor="middle" x="87.5" y="-423.2" font-family="Courier,monospace" font-size="11.00">BaseController</text>
</g>
<!-- \\IkaGear\\controller\\AboutController&#45;&gt;\\IkaGear\\controller\\BaseController -->
<g id="edge1" class="edge"><title>\\IkaGear\\controller\\AboutController&#45;&gt;\\IkaGear\\controller\\BaseController</title>
<path fill="none" stroke="black" d="M214.876,-462.988C195.179,-457.223 173.065,-450.751 152.907,-444.851"/>
<polygon fill="none" stroke="black" points="153.769,-441.456 143.189,-442.006 151.803,-448.175 153.769,-441.456"/>
</g>
<!-- \\IkaGear\\controller\\IndexController -->
<g id="node3" class="node"><title>\\IkaGear\\controller\\IndexController</title>
<polygon fill="none" stroke="black" points="333,-444 215,-444 215,-408 333,-408 333,-444"/>
<text text-anchor="middle" x="274" y="-423.2" font-family="Courier,monospace" font-size="11.00">IndexController</text>
</g>
<!-- \\IkaGear\\controller\\IndexController&#45;&gt;\\IkaGear\\controller\\BaseController -->
<g id="edge2" class="edge"><title>\\IkaGear\\controller\\IndexController&#45;&gt;\\IkaGear\\controller\\BaseController</title>
<path fill="none" stroke="black" d="M214.876,-426C195.358,-426 173.466,-426 153.458,-426"/>
<polygon fill="none" stroke="black" points="153.189,-422.5 143.189,-426 153.188,-429.5 153.189,-422.5"/>
</g>
<!-- \\IkaGear\\controller\\BkrsController -->
<g id="node4" class="node"><title>\\IkaGear\\controller\\BkrsController</title>
<polygon fill="none" stroke="black" points="329.5,-390 218.5,-390 218.5,-354 329.5,-354 329.5,-390"/>
<text text-anchor="middle" x="274" y="-369.2" font-family="Courier,monospace" font-size="11.00">BkrsController</text>
</g>
<!-- \\IkaGear\\controller\\BkrsController&#45;&gt;\\IkaGear\\controller\\BaseController -->
<g id="edge5" class="edge"><title>\\IkaGear\\controller\\BkrsController&#45;&gt;\\IkaGear\\controller\\BaseController</title>
<path fill="none" stroke="black" d="M218.143,-388.056C197.602,-394.068 174.083,-400.951 152.766,-407.19"/>
<polygon fill="none" stroke="black" points="151.759,-403.838 143.145,-410.006 153.726,-410.556 151.759,-403.838"/>
</g>
<!-- \\IkaGear\\model\\BaseModel -->
<g id="node5" class="node"><title>\\IkaGear\\model\\BaseModel</title>
<polygon fill="none" stroke="black" points="126,-310 49,-310 49,-274 126,-274 126,-310"/>
<text text-anchor="middle" x="87.5" y="-289.2" font-family="Courier,monospace" font-size="11.00">BaseModel</text>
</g>
<!-- \\IkaGear\\model\\IndexModel -->
<g id="node6" class="node"><title>\\IkaGear\\model\\IndexModel</title>
<polygon fill="none" stroke="black" points="316,-310 232,-310 232,-274 316,-274 316,-310"/>
<text text-anchor="middle" x="274" y="-289.2" font-family="Courier,monospace" font-size="11.00">IndexModel</text>
</g>
<!-- \\IkaGear\\model\\IndexModel&#45;&gt;\\IkaGear\\model\\BaseModel -->
<g id="edge4" class="edge"><title>\\IkaGear\\model\\IndexModel&#45;&gt;\\IkaGear\\model\\BaseModel</title>
<path fill="none" stroke="black" d="M231.595,-292C203.273,-292 165.654,-292 136.095,-292"/>
<polygon fill="none" stroke="black" points="136.005,-288.5 126.005,-292 136.005,-295.5 136.005,-288.5"/>
</g>
<!-- \\IkaGear\\view\\smarty -->
<g id="node7" class="node"><title>\\IkaGear\\view\\smarty</title>
<polygon fill="none" stroke="black" points="302.5,-230 245.5,-230 245.5,-194 302.5,-194 302.5,-230"/>
<text text-anchor="middle" x="274" y="-209.2" font-family="Courier,monospace" font-size="11.00">smarty</text>
</g>
<!-- \\Smarty -->
<g id="node10" class="node"><title>\\Smarty</title>
<ellipse fill="none" stroke="black" cx="87.5" cy="-18" rx="38.9931" ry="18"/>
<text text-anchor="middle" x="87.5" y="-14.3" font-family="Times New Roman,serif" font-size="14.00" fill="gray">\Smarty</text>
</g>
<!-- \\IkaGear\\view\\smarty&#45;&gt;\\Smarty -->
<g id="edge3" class="edge"><title>\\IkaGear\\view\\smarty&#45;&gt;\\Smarty</title>
<path fill="none" stroke="black" d="M245.218,-200.68C235.104,-195.801 223.964,-189.483 215,-182 166.346,-141.387 124.726,-78.9605 103.515,-44.0069"/>
<polygon fill="none" stroke="black" points="106.463,-42.1168 98.3279,-35.3297 100.455,-45.7088 106.463,-42.1168"/>
</g>
<!-- \\IkaGear\\system\\logger -->
<g id="node8" class="node"><title>\\IkaGear\\system\\logger</title>
<polygon fill="none" stroke="black" points="302.5,-150 245.5,-150 245.5,-114 302.5,-114 302.5,-150"/>
<text text-anchor="middle" x="274" y="-129.2" font-family="Courier,monospace" font-size="11.00">logger</text>
</g>
<!-- \\IkaGear\\IkaGear -->
<g id="node9" class="node"><title>\\IkaGear\\IkaGear</title>
<polygon fill="none" stroke="black" points="306,-96 242,-96 242,-60 306,-60 306,-96"/>
<text text-anchor="middle" x="274" y="-75.2" font-family="Courier,monospace" font-size="11.00">IkaGear</text>
</g>
</g>
</svg>
