<?xml version="1.0" encoding="UTF-8" standalone="no"?>
<!DOCTYPE svg PUBLIC "-//W3C//DTD SVG 1.1//EN"
 "http://www.w3.org/Graphics/SVG/1.1/DTD/svg11.dtd">
<!-- Generated by graphviz version 2.38.0 (20140413.2041)
 -->
<!-- Title: G Pages: 1 -->
<svg width="373pt" height="544pt"
 viewBox="0.00 0.00 373.00 544.00" xmlns="http://www.w3.org/2000/svg" xmlns:xlink="http://www.w3.org/1999/xlink">
<g id="graph0" class="graph" transform="scale(1 1) rotate(0) translate(4 540)">
<title>G</title>
<polygon fill="white" stroke="none" points="-4,4 -4,-540 369,-540 369,4 -4,4"/>
<g id="clust1" class="cluster"><title>cluster_Global</title>
<path fill="none" stroke="gray" d="M20,-44C20,-44 345,-44 345,-44 351,-44 357,-50 357,-56 357,-56 357,-516 357,-516 357,-522 351,-528 345,-528 345,-528 20,-528 20,-528 14,-528 8,-522 8,-516 8,-516 8,-56 8,-56 8,-50 14,-44 20,-44"/>
<text text-anchor="middle" x="182.5" y="-515.2" font-family="Times New Roman,serif" font-size="11.00" fill="gray">Global</text>
</g>
<g id="clust2" class="cluster"><title>cluster_\IkaGear</title>
<path fill="none" stroke="gray" d="M28,-52C28,-52 337,-52 337,-52 343,-52 349,-58 349,-64 349,-64 349,-488 349,-488 349,-494 343,-500 337,-500 337,-500 28,-500 28,-500 22,-500 16,-494 16,-488 16,-488 16,-64 16,-64 16,-58 22,-52 28,-52"/>
<text text-anchor="middle" x="182.5" y="-487.2" font-family="Times New Roman,serif" font-size="11.00" fill="gray">IkaGear</text>
</g>
<g id="clust3" class="cluster"><title>cluster_\IkaGear\controller</title>
<path fill="none" stroke="gray" d="M36,-346C36,-346 329,-346 329,-346 335,-346 341,-352 341,-358 341,-358 341,-460 341,-460 341,-466 335,-472 329,-472 329,-472 36,-472 36,-472 30,-472 24,-466 24,-460 24,-460 24,-358 24,-358 24,-352 30,-346 36,-346"/>
<text text-anchor="middle" x="182.5" y="-459.2" font-family="Times New Roman,serif" font-size="11.00" fill="gray">controller</text>
</g>
<g id="clust4" class="cluster"><title>cluster_\IkaGear\model</title>
<path fill="none" stroke="gray" d="M53,-266C53,-266 312,-266 312,-266 318,-266 324,-272 324,-278 324,-278 324,-326 324,-326 324,-332 318,-338 312,-338 312,-338 53,-338 53,-338 47,-338 41,-332 41,-326 41,-326 41,-278 41,-278 41,-272 47,-266 53,-266"/>
<text text-anchor="middle" x="182.5" y="-325.2" font-family="Times New Roman,serif" font-size="11.00" fill="gray">model</text>
</g>
<g id="clust5" class="cluster"><title>cluster_\IkaGear\view</title>
<path fill="none" stroke="gray" d="M249.5,-186C249.5,-186 298.5,-186 298.5,-186 304.5,-186 310.5,-192 310.5,-198 310.5,-198 310.5,-246 310.5,-246 310.5,-252 304.5,-258 298.5,-258 298.5,-258 249.5,-258 249.5,-258 243.5,-258 237.5,-252 237.5,-246 237.5,-246 237.5,-198 237.5,-198 237.5,-192 243.5,-186 249.5,-186"/>
<text text-anchor="middle" x="274" y="-245.2" font-family="Times New Roman,serif" font-size="11.00" fill="gray">view</text>
</g>
<g id="clust6" class="cluster"><title>cluster_\IkaGear\system</title>
<path fill="none" stroke="gray" d="M249.5,-106C249.5,-106 298.5,-106 298.5,-106 304.5,-106 310.5,-112 310.5,-118 310.5,-118 310.5,-166 310.5,-166 310.5,-172 304.5,-178 298.5,-178 298.5,-178 249.5,-178 249.5,-178 243.5,-178 237.5,-172 237.5,-166 237.5,-166 237.5,-118 237.5,-118 237.5,-112 243.5,-106 249.5,-106"/>
<text text-anchor="middle" x="274" y="-165.2" font-family="Times New Roman,serif" font-size="11.00" fill="gray">system</text>
</g>
<!-- \\IkaGear\\controller\\AboutController -->
<g id="node1" class="node"><title>\\IkaGear\\controller\\AboutController</title>
<polygon fill="none" stroke="black" points="333,-444 215,-444 215,-408 333,-408 333,-444"/>
<text text-anchor="middle" x="274" y="-423.2" font-family="Courier,monospace" font-size="11.00">AboutController</text>
</g>
<!-- \\IkaGear\\controller\\BaseController -->
<g id="node2" class="node"><title>\\IkaGear\\controller\\BaseController</title>
<polygon fill="none" stroke="black" points="143,-417 32,-417 32,-381 143,-381 143,-417"/>
<text text-anchor="middle" x="87.5" y="-396.2" font-family="Courier,monospace" font-size="11.00">BaseController</text>
</g>
<!-- \\IkaGear\\controller\\AboutController&#45;&gt;\\IkaGear\\controller\\BaseController -->
<g id="edge1" class="edge"><title>\\IkaGear\\controller\\AboutController&#45;&gt;\\IkaGear\\controller\\BaseController</title>
<path fill="none" stroke="black" d="M214.876,-417.494C195.268,-414.625 173.266,-411.405 153.182,-408.466"/>
<polygon fill="none" stroke="black" points="153.59,-404.988 143.189,-407.003 152.576,-411.914 153.59,-404.988"/>
</g>
<!-- \\IkaGear\\controller\\IndexController -->
<g id="node3" class="node"><title>\\IkaGear\\controller\\IndexController</title>
<polygon fill="none" stroke="black" points="333,-390 215,-390 215,-354 333,-354 333,-390"/>
<text text-anchor="middle" x="274" y="-369.2" font-family="Courier,monospace" font-size="11.00">IndexController</text>
</g>
<!-- \\IkaGear\\controller\\IndexController&#45;&gt;\\IkaGear\\controller\\BaseController -->
<g id="edge2" class="edge"><title>\\IkaGear\\controller\\IndexController&#45;&gt;\\IkaGear\\controller\\BaseController</title>
<path fill="none" stroke="black" d="M214.876,-380.506C195.268,-383.375 173.266,-386.595 153.182,-389.534"/>
<polygon fill="none" stroke="black" points="152.576,-386.086 143.189,-390.997 153.59,-393.012 152.576,-386.086"/>
</g>
<!-- \\IkaGear\\model\\BaseModel -->
<g id="node4" class="node"><title>\\IkaGear\\model\\BaseModel</title>
<polygon fill="none" stroke="black" points="126,-310 49,-310 49,-274 126,-274 126,-310"/>
<text text-anchor="middle" x="87.5" y="-289.2" font-family="Courier,monospace" font-size="11.00">BaseModel</text>
</g>
<!-- \\IkaGear\\model\\IndexModel -->
<g id="node5" class="node"><title>\\IkaGear\\model\\IndexModel</title>
<polygon fill="none" stroke="black" points="316,-310 232,-310 232,-274 316,-274 316,-310"/>
<text text-anchor="middle" x="274" y="-289.2" font-family="Courier,monospace" font-size="11.00">IndexModel</text>
</g>
<!-- \\IkaGear\\model\\IndexModel&#45;&gt;\\IkaGear\\model\\BaseModel -->
<g id="edge4" class="edge"><title>\\IkaGear\\model\\IndexModel&#45;&gt;\\IkaGear\\model\\BaseModel</title>
<path fill="none" stroke="black" d="M231.595,-292C203.273,-292 165.654,-292 136.095,-292"/>
<polygon fill="none" stroke="black" points="136.005,-288.5 126.005,-292 136.005,-295.5 136.005,-288.5"/>
</g>
<!-- \\IkaGear\\view\\smarty -->
<g id="node6" class="node"><title>\\IkaGear\\view\\smarty</title>
<polygon fill="none" stroke="black" points="302.5,-230 245.5,-230 245.5,-194 302.5,-194 302.5,-230"/>
<text text-anchor="middle" x="274" y="-209.2" font-family="Courier,monospace" font-size="11.00">smarty</text>
</g>
<!-- \\Smarty -->
<g id="node9" class="node"><title>\\Smarty</title>
<ellipse fill="none" stroke="black" cx="87.5" cy="-18" rx="38.9931" ry="18"/>
<text text-anchor="middle" x="87.5" y="-14.3" font-family="Times New Roman,serif" font-size="14.00" fill="gray">\Smarty</text>
</g>
<!-- \\IkaGear\\view\\smarty&#45;&gt;\\Smarty -->
<g id="edge3" class="edge"><title>\\IkaGear\\view\\smarty&#45;&gt;\\Smarty</title>
<path fill="none" stroke="black" d="M245.218,-200.68C235.104,-195.801 223.964,-189.483 215,-182 166.346,-141.387 124.726,-78.9605 103.515,-44.0069"/>
<polygon fill="none" stroke="black" points="106.463,-42.1168 98.3279,-35.3297 100.455,-45.7088 106.463,-42.1168"/>
</g>
<!-- \\IkaGear\\system\\logger -->
<g id="node7" class="node"><title>\\IkaGear\\system\\logger</title>
<polygon fill="none" stroke="black" points="302.5,-150 245.5,-150 245.5,-114 302.5,-114 302.5,-150"/>
<text text-anchor="middle" x="274" y="-129.2" font-family="Courier,monospace" font-size="11.00">logger</text>
</g>
<!-- \\IkaGear\\IkaGear -->
<g id="node8" class="node"><title>\\IkaGear\\IkaGear</title>
<polygon fill="none" stroke="black" points="306,-96 242,-96 242,-60 306,-60 306,-96"/>
<text text-anchor="middle" x="274" y="-75.2" font-family="Courier,monospace" font-size="11.00">IkaGear</text>
</g>
</g>
</svg>
