<?xml version="1.0" encoding="UTF-8" standalone="no"?>
<!DOCTYPE svg PUBLIC "-//W3C//DTD SVG 1.1//EN"
 "http://www.w3.org/Graphics/SVG/1.1/DTD/svg11.dtd">
<!-- Generated by graphviz version 2.38.0 (20140413.2041)
 -->
<!-- Title: G Pages: 1 -->
<svg width="374pt" height="896pt"
 viewBox="0.00 0.00 374.00 896.00" xmlns="http://www.w3.org/2000/svg" xmlns:xlink="http://www.w3.org/1999/xlink">
<g id="graph0" class="graph" transform="scale(1 1) rotate(0) translate(4 892)">
<title>G</title>
<polygon fill="white" stroke="none" points="-4,4 -4,-892 370,-892 370,4 -4,4"/>
<g id="clust1" class="cluster"><title>cluster_Global</title>
<path fill="none" stroke="gray" d="M20,-44C20,-44 346,-44 346,-44 352,-44 358,-50 358,-56 358,-56 358,-868 358,-868 358,-874 352,-880 346,-880 346,-880 20,-880 20,-880 14,-880 8,-874 8,-868 8,-868 8,-56 8,-56 8,-50 14,-44 20,-44"/>
<text text-anchor="middle" x="183" y="-867.2" font-family="Times New Roman,serif" font-size="11.00" fill="gray">Global</text>
</g>
<g id="clust2" class="cluster"><title>cluster_\IkaGear</title>
<path fill="none" stroke="gray" d="M28,-52C28,-52 338,-52 338,-52 344,-52 350,-58 350,-64 350,-64 350,-840 350,-840 350,-846 344,-852 338,-852 338,-852 28,-852 28,-852 22,-852 16,-846 16,-840 16,-840 16,-64 16,-64 16,-58 22,-52 28,-52"/>
<text text-anchor="middle" x="183" y="-839.2" font-family="Times New Roman,serif" font-size="11.00" fill="gray">IkaGear</text>
</g>
<g id="clust3" class="cluster"><title>cluster_\IkaGear\controller</title>
<path fill="none" stroke="gray" d="M36,-644C36,-644 329,-644 329,-644 335,-644 341,-650 341,-656 341,-656 341,-812 341,-812 341,-818 335,-824 329,-824 329,-824 36,-824 36,-824 30,-824 24,-818 24,-812 24,-812 24,-656 24,-656 24,-650 30,-644 36,-644"/>
<text text-anchor="middle" x="182.5" y="-811.2" font-family="Times New Roman,serif" font-size="11.00" fill="gray">controller</text>
</g>
<g id="clust4" class="cluster"><title>cluster_\IkaGear\model</title>
<path fill="none" stroke="gray" d="M53,-266C53,-266 330,-266 330,-266 336,-266 342,-272 342,-278 342,-278 342,-624 342,-624 342,-630 336,-636 330,-636 330,-636 53,-636 53,-636 47,-636 41,-630 41,-624 41,-624 41,-278 41,-278 41,-272 47,-266 53,-266"/>
<text text-anchor="middle" x="191.5" y="-623.2" font-family="Times New Roman,serif" font-size="11.00" fill="gray">model</text>
</g>
<g id="clust5" class="cluster"><title>cluster_\IkaGear\model\object</title>
<path fill="none" stroke="gray" d="M226,-320C226,-320 322,-320 322,-320 328,-320 334,-326 334,-332 334,-332 334,-596 334,-596 334,-602 328,-608 322,-608 322,-608 226,-608 226,-608 220,-608 214,-602 214,-596 214,-596 214,-332 214,-332 214,-326 220,-320 226,-320"/>
<text text-anchor="middle" x="274" y="-595.2" font-family="Times New Roman,serif" font-size="11.00" fill="gray">object</text>
</g>
<g id="clust6" class="cluster"><title>cluster_\IkaGear\view</title>
<path fill="none" stroke="gray" d="M249.5,-186C249.5,-186 298.5,-186 298.5,-186 304.5,-186 310.5,-192 310.5,-198 310.5,-198 310.5,-246 310.5,-246 310.5,-252 304.5,-258 298.5,-258 298.5,-258 249.5,-258 249.5,-258 243.5,-258 237.5,-252 237.5,-246 237.5,-246 237.5,-198 237.5,-198 237.5,-192 243.5,-186 249.5,-186"/>
<text text-anchor="middle" x="274" y="-245.2" font-family="Times New Roman,serif" font-size="11.00" fill="gray">view</text>
</g>
<g id="clust7" class="cluster"><title>cluster_\IkaGear\system</title>
<path fill="none" stroke="gray" d="M249.5,-106C249.5,-106 298.5,-106 298.5,-106 304.5,-106 310.5,-112 310.5,-118 310.5,-118 310.5,-166 310.5,-166 310.5,-172 304.5,-178 298.5,-178 298.5,-178 249.5,-178 249.5,-178 243.5,-178 237.5,-172 237.5,-166 237.5,-166 237.5,-118 237.5,-118 237.5,-112 243.5,-106 249.5,-106"/>
<text text-anchor="middle" x="274" y="-165.2" font-family="Times New Roman,serif" font-size="11.00" fill="gray">system</text>
</g>
<!-- \\IkaGear\\controller\\AboutController -->
<g id="node1" class="node"><title>\\IkaGear\\controller\\AboutController</title>
<polygon fill="none" stroke="black" points="333,-796 215,-796 215,-760 333,-760 333,-796"/>
<text text-anchor="middle" x="274" y="-775.2" font-family="Courier,monospace" font-size="11.00">AboutController</text>
</g>
<!-- \\IkaGear\\controller\\BaseController -->
<g id="node3" class="node"><title>\\IkaGear\\controller\\BaseController</title>
<polygon fill="none" stroke="black" points="143,-742 32,-742 32,-706 143,-706 143,-742"/>
<text text-anchor="middle" x="87.5" y="-721.2" font-family="Courier,monospace" font-size="11.00">BaseController</text>
</g>
<!-- \\IkaGear\\controller\\AboutController&#45;&gt;\\IkaGear\\controller\\BaseController -->
<g id="edge1" class="edge"><title>\\IkaGear\\controller\\AboutController&#45;&gt;\\IkaGear\\controller\\BaseController</title>
<path fill="none" stroke="black" d="M214.876,-760.988C195.179,-755.223 173.065,-748.751 152.907,-742.851"/>
<polygon fill="none" stroke="black" points="153.769,-739.456 143.189,-740.006 151.803,-746.175 153.769,-739.456"/>
</g>
<!-- \\IkaGear\\controller\\BkrsController -->
<g id="node2" class="node"><title>\\IkaGear\\controller\\BkrsController</title>
<polygon fill="none" stroke="black" points="329.5,-742 218.5,-742 218.5,-706 329.5,-706 329.5,-742"/>
<text text-anchor="middle" x="274" y="-721.2" font-family="Courier,monospace" font-size="11.00">BkrsController</text>
</g>
<!-- \\IkaGear\\controller\\BkrsController&#45;&gt;\\IkaGear\\controller\\BaseController -->
<g id="edge2" class="edge"><title>\\IkaGear\\controller\\BkrsController&#45;&gt;\\IkaGear\\controller\\BaseController</title>
<path fill="none" stroke="black" d="M218.143,-724C197.787,-724 174.506,-724 153.343,-724"/>
<polygon fill="none" stroke="black" points="153.145,-720.5 143.145,-724 153.145,-727.5 153.145,-720.5"/>
</g>
<!-- \\IkaGear\\controller\\IndexController -->
<g id="node4" class="node"><title>\\IkaGear\\controller\\IndexController</title>
<polygon fill="none" stroke="black" points="333,-688 215,-688 215,-652 333,-652 333,-688"/>
<text text-anchor="middle" x="274" y="-667.2" font-family="Courier,monospace" font-size="11.00">IndexController</text>
</g>
<!-- \\IkaGear\\controller\\IndexController&#45;&gt;\\IkaGear\\controller\\BaseController -->
<g id="edge3" class="edge"><title>\\IkaGear\\controller\\IndexController&#45;&gt;\\IkaGear\\controller\\BaseController</title>
<path fill="none" stroke="black" d="M214.876,-687.012C195.179,-692.777 173.065,-699.249 152.907,-705.149"/>
<polygon fill="none" stroke="black" points="151.803,-701.825 143.189,-707.994 153.769,-708.544 151.803,-701.825"/>
</g>
<!-- \\IkaGear\\model\\object\\GearObject -->
<g id="node5" class="node"><title>\\IkaGear\\model\\object\\GearObject</title>
<polygon fill="none" stroke="black" points="316,-580 232,-580 232,-544 316,-544 316,-580"/>
<text text-anchor="middle" x="274" y="-559.2" font-family="Courier,monospace" font-size="11.00">GearObject</text>
</g>
<!-- \\IkaGear\\model\\object\\BrandObject -->
<g id="node6" class="node"><title>\\IkaGear\\model\\object\\BrandObject</title>
<polygon fill="none" stroke="black" points="319.5,-526 228.5,-526 228.5,-490 319.5,-490 319.5,-526"/>
<text text-anchor="middle" x="274" y="-505.2" font-family="Courier,monospace" font-size="11.00">BrandObject</text>
</g>
<!-- \\IkaGear\\model\\object\\TypeObject -->
<g id="node7" class="node"><title>\\IkaGear\\model\\object\\TypeObject</title>
<polygon fill="none" stroke="black" points="316,-472 232,-472 232,-436 316,-436 316,-472"/>
<text text-anchor="middle" x="274" y="-451.2" font-family="Courier,monospace" font-size="11.00">TypeObject</text>
</g>
<!-- \\IkaGear\\model\\object\\VersionObject -->
<g id="node8" class="node"><title>\\IkaGear\\model\\object\\VersionObject</title>
<polygon fill="none" stroke="black" points="326,-418 222,-418 222,-382 326,-382 326,-418"/>
<text text-anchor="middle" x="274" y="-397.2" font-family="Courier,monospace" font-size="11.00">VersionObject</text>
</g>
<!-- \\IkaGear\\model\\object\\PowerObject -->
<g id="node9" class="node"><title>\\IkaGear\\model\\object\\PowerObject</title>
<polygon fill="none" stroke="black" points="319.5,-364 228.5,-364 228.5,-328 319.5,-328 319.5,-364"/>
<text text-anchor="middle" x="274" y="-343.2" font-family="Courier,monospace" font-size="11.00">PowerObject</text>
</g>
<!-- \\IkaGear\\model\\BaseModel -->
<g id="node10" class="node"><title>\\IkaGear\\model\\BaseModel</title>
<polygon fill="none" stroke="black" points="126,-310 49,-310 49,-274 126,-274 126,-310"/>
<text text-anchor="middle" x="87.5" y="-289.2" font-family="Courier,monospace" font-size="11.00">BaseModel</text>
</g>
<!-- \\IkaGear\\model\\IndexModel -->
<g id="node11" class="node"><title>\\IkaGear\\model\\IndexModel</title>
<polygon fill="none" stroke="black" points="316,-310 232,-310 232,-274 316,-274 316,-310"/>
<text text-anchor="middle" x="274" y="-289.2" font-family="Courier,monospace" font-size="11.00">IndexModel</text>
</g>
<!-- \\IkaGear\\model\\IndexModel&#45;&gt;\\IkaGear\\model\\BaseModel -->
<g id="edge5" class="edge"><title>\\IkaGear\\model\\IndexModel&#45;&gt;\\IkaGear\\model\\BaseModel</title>
<path fill="none" stroke="black" d="M231.595,-292C203.273,-292 165.654,-292 136.095,-292"/>
<polygon fill="none" stroke="black" points="136.005,-288.5 126.005,-292 136.005,-295.5 136.005,-288.5"/>
</g>
<!-- \\IkaGear\\view\\smarty -->
<g id="node12" class="node"><title>\\IkaGear\\view\\smarty</title>
<polygon fill="none" stroke="black" points="302.5,-230 245.5,-230 245.5,-194 302.5,-194 302.5,-230"/>
<text text-anchor="middle" x="274" y="-209.2" font-family="Courier,monospace" font-size="11.00">smarty</text>
</g>
<!-- \\Smarty -->
<g id="node15" class="node"><title>\\Smarty</title>
<ellipse fill="none" stroke="black" cx="87.5" cy="-18" rx="38.9931" ry="18"/>
<text text-anchor="middle" x="87.5" y="-14.3" font-family="Times New Roman,serif" font-size="14.00" fill="gray">\Smarty</text>
</g>
<!-- \\IkaGear\\view\\smarty&#45;&gt;\\Smarty -->
<g id="edge4" class="edge"><title>\\IkaGear\\view\\smarty&#45;&gt;\\Smarty</title>
<path fill="none" stroke="black" d="M245.315,-201.056C234.867,-196.151 223.275,-189.718 214,-182 165.427,-141.582 124.25,-79.0819 103.308,-44.0636"/>
<polygon fill="none" stroke="black" points="106.279,-42.2101 98.188,-35.3695 100.247,-45.7624 106.279,-42.2101"/>
</g>
<!-- \\IkaGear\\system\\logger -->
<g id="node13" class="node"><title>\\IkaGear\\system\\logger</title>
<polygon fill="none" stroke="black" points="302.5,-150 245.5,-150 245.5,-114 302.5,-114 302.5,-150"/>
<text text-anchor="middle" x="274" y="-129.2" font-family="Courier,monospace" font-size="11.00">logger</text>
</g>
<!-- \\IkaGear\\IkaGear -->
<g id="node14" class="node"><title>\\IkaGear\\IkaGear</title>
<polygon fill="none" stroke="black" points="306,-96 242,-96 242,-60 306,-60 306,-96"/>
<text text-anchor="middle" x="274" y="-75.2" font-family="Courier,monospace" font-size="11.00">IkaGear</text>
</g>
</g>
</svg>
